<?xml version="1.0" encoding="UTF-8" standalone="no"?>
<!-- Created with Inkscape (http://www.inkscape.org/) -->

<svg
   width="210mm"
   height="297mm"
   viewBox="0 0 210 297"
   version="1.1"
   id="svg304"
   xml:space="preserve"
   sodipodi:docname="page4.svg"
   inkscape:version="1.2 (dc2aedaf03, 2022-05-15)"
   inkscape:export-filename="page2.pdf"
   inkscape:export-xdpi="96"
   inkscape:export-ydpi="96"
   xmlns:inkscape="http://www.inkscape.org/namespaces/inkscape"
   xmlns:sodipodi="http://sodipodi.sourceforge.net/DTD/sodipodi-0.dtd"
   xmlns="http://www.w3.org/2000/svg"
   xmlns:svg="http://www.w3.org/2000/svg"><sodipodi:namedview
     id="namedview306"
     pagecolor="#ffffff"
     bordercolor="#666666"
     borderopacity="1.0"
     inkscape:showpageshadow="2"
     inkscape:pageopacity="0.0"
     inkscape:pagecheckerboard="false"
     inkscape:deskcolor="#d1d1d1"
     inkscape:document-units="mm"
     showgrid="false"
     inkscape:zoom="0.70710678"
     inkscape:cx="570.63517"
     inkscape:cy="573.4636"
     inkscape:window-width="1918"
     inkscape:window-height="1060"
     inkscape:window-x="0"
     inkscape:window-y="18"
     inkscape:window-maximized="1"
     inkscape:current-layer="layer1"
     shape-rendering="auto"
     showguides="false" /><defs
     id="defs301"><rect
       x="413.62721"
       y="147.77505"
       width="202.14823"
       height="43.53538"
       id="rect7427" /><marker
       style="overflow:visible"
       id="marker1873"
       refX="-2"
       refY="0"
       orient="auto"
       inkscape:stockid="Dot"
       markerWidth="5.4000001"
       markerHeight="5.4000001"
       viewBox="0 0 5.4 5.4"
       inkscape:isstock="true"
       inkscape:collect="always"
       preserveAspectRatio="xMidYMid"><path
         transform="scale(0.45)"
         style="fill:context-fill;fill-rule:evenodd;stroke:context-stroke;stroke-width:2"
         d="M 5,0 C 5,2.76 2.76,5 0,5 -2.76,5 -5,2.76 -5,0 c 0,-2.76 2.3,-5 5,-5 2.76,0 5,2.24 5,5 z"
         id="path1871"
         sodipodi:nodetypes="sssss" /></marker><marker
       style="overflow:visible"
       id="marker1873-5"
       refX="-2"
       refY="0"
       orient="auto"
       inkscape:stockid="Dot"
       markerWidth="5.4000001"
       markerHeight="5.4000001"
       viewBox="0 0 5.4 5.4"
       inkscape:isstock="true"
       inkscape:collect="always"
       preserveAspectRatio="xMidYMid"><path
         transform="scale(0.45)"
         style="fill:context-fill;fill-rule:evenodd;stroke:context-stroke;stroke-width:2"
         d="M 5,0 C 5,2.76 2.76,5 0,5 -2.76,5 -5,2.76 -5,0 c 0,-2.76 2.3,-5 5,-5 2.76,0 5,2.24 5,5 z"
         id="path1871-0"
         sodipodi:nodetypes="sssss" /></marker><rect
       x="413.6272"
       y="147.77505"
       width="239.82794"
       height="56.256626"
       id="rect7427-6" /><rect
       x="413.6272"
       y="147.77505"
       width="239.82794"
       height="56.256626"
       id="rect7427-6-6" /><rect
       x="413.6272"
       y="147.77505"
       width="239.82794"
       height="56.256626"
       id="rect7427-6-6-3" /><marker
       style="overflow:visible"
       id="marker6781-3"
       refX="-3"
       refY="0"
       orient="auto"
       inkscape:stockid="Dot"
       markerWidth="5.4000001"
       markerHeight="5.4000001"
       viewBox="0 0 5.4 5.4"
       inkscape:isstock="true"
       inkscape:collect="always"
       preserveAspectRatio="xMidYMid"><path
         transform="scale(0.45)"
         style="fill:context-fill;fill-rule:evenodd;stroke:context-stroke;stroke-width:2"
         d="M 5,0 C 5,2.76 2.76,5 0,5 -2.76,5 -5,2.76 -5,0 c 0,-2.76 2.3,-5 5,-5 2.76,0 5,2.24 5,5 z"
         id="path6779-6"
         sodipodi:nodetypes="sssss" /></marker><marker
       style="overflow:visible"
       id="marker1404-2-3"
       refX="2"
       refY="0"
       orient="auto"
       inkscape:stockid="Dot"
       markerWidth="3.4000001"
       markerHeight="3.4000001"
       viewBox="0 0 5.4 5.4"
       inkscape:isstock="true"
       inkscape:collect="always"
       preserveAspectRatio="xMidYMid"
       markerUnits="strokeWidth"><path
         transform="scale(0.45)"
         style="fill:context-fill;fill-rule:evenodd;stroke:context-stroke;stroke-width:2"
         d="M 5,0 C 5,2.76 2.76,5 0,5 -2.76,5 -5,2.76 -5,0 c 0,-2.76 2.3,-5 5,-5 2.76,0 5,2.24 5,5 z"
         id="path1402-9-6"
         sodipodi:nodetypes="sssss" /></marker><marker
       style="overflow:visible"
       id="marker3131-9-1-7"
       refX="-2"
       refY="0"
       orient="auto"
       inkscape:stockid="Dot"
       markerWidth="3.4000001"
       markerHeight="3.4000001"
       viewBox="0 0 5.4 5.4"
       inkscape:isstock="true"
       inkscape:collect="always"
       preserveAspectRatio="xMidYMid"><path
         transform="scale(0.45)"
         style="fill:context-fill;fill-rule:evenodd;stroke:context-stroke;stroke-width:2"
         d="M 5,0 C 5,2.76 2.76,5 0,5 -2.76,5 -5,2.76 -5,0 c 0,-2.76 2.3,-5 5,-5 2.76,0 5,2.24 5,5 z"
         id="path3129-1-2-5"
         sodipodi:nodetypes="sssss" /></marker><marker
       style="overflow:visible"
       id="marker1404-2-3-3-3"
       refX="2"
       refY="0"
       orient="auto"
       inkscape:stockid="Dot"
       markerWidth="3.4000001"
       markerHeight="3.4000001"
       viewBox="0 0 5.4 5.4"
       inkscape:isstock="true"
       inkscape:collect="always"
       preserveAspectRatio="xMidYMid"
       markerUnits="strokeWidth"><path
         transform="scale(0.45)"
         style="fill:context-fill;fill-rule:evenodd;stroke:context-stroke;stroke-width:2"
         d="M 5,0 C 5,2.76 2.76,5 0,5 -2.76,5 -5,2.76 -5,0 c 0,-2.76 2.3,-5 5,-5 2.76,0 5,2.24 5,5 z"
         id="path1402-9-6-6-1"
         sodipodi:nodetypes="sssss" /></marker><marker
       style="overflow:visible"
       id="marker1404-2-3-3-3-5"
       refX="2"
       refY="0"
       orient="auto"
       inkscape:stockid="Dot"
       markerWidth="3.4000001"
       markerHeight="3.4000001"
       viewBox="0 0 5.4 5.4"
       inkscape:isstock="true"
       inkscape:collect="always"
       preserveAspectRatio="xMidYMid"
       markerUnits="strokeWidth"><path
         transform="scale(0.45)"
         style="fill:context-fill;fill-rule:evenodd;stroke:context-stroke;stroke-width:2"
         d="M 5,0 C 5,2.76 2.76,5 0,5 -2.76,5 -5,2.76 -5,0 c 0,-2.76 2.3,-5 5,-5 2.76,0 5,2.24 5,5 z"
         id="path1402-9-6-6-1-0"
         sodipodi:nodetypes="sssss" /></marker><marker
       style="overflow:visible"
       id="marker1404-2-3-3-3-5-1"
       refX="2"
       refY="0"
       orient="auto"
       inkscape:stockid="Dot"
       markerWidth="3.4000001"
       markerHeight="3.4000001"
       viewBox="0 0 5.4 5.4"
       inkscape:isstock="true"
       inkscape:collect="always"
       preserveAspectRatio="xMidYMid"
       markerUnits="strokeWidth"><path
         transform="scale(0.45)"
         style="fill:context-fill;fill-rule:evenodd;stroke:context-stroke;stroke-width:2"
         d="M 5,0 C 5,2.76 2.76,5 0,5 -2.76,5 -5,2.76 -5,0 c 0,-2.76 2.3,-5 5,-5 2.76,0 5,2.24 5,5 z"
         id="path1402-9-6-6-1-0-0"
         sodipodi:nodetypes="sssss" /></marker><marker
       style="overflow:visible"
       id="marker1404-2-3-3-3-5-1-3"
       refX="2"
       refY="0"
       orient="auto"
       inkscape:stockid="Dot"
       markerWidth="3.4000001"
       markerHeight="3.4000001"
       viewBox="0 0 5.4 5.4"
       inkscape:isstock="true"
       inkscape:collect="always"
       preserveAspectRatio="xMidYMid"
       markerUnits="strokeWidth"><path
         transform="scale(0.45)"
         style="fill:context-fill;fill-rule:evenodd;stroke:context-stroke;stroke-width:2"
         d="M 5,0 C 5,2.76 2.76,5 0,5 -2.76,5 -5,2.76 -5,0 c 0,-2.76 2.3,-5 5,-5 2.76,0 5,2.24 5,5 z"
         id="path1402-9-6-6-1-0-0-2"
         sodipodi:nodetypes="sssss" /></marker><marker
       style="overflow:visible"
       id="marker1404-2-3-3-3-5-1-3-3"
       refX="2"
       refY="0"
       orient="auto"
       inkscape:stockid="Dot"
       markerWidth="3.4000001"
       markerHeight="3.4000001"
       viewBox="0 0 5.4 5.4"
       inkscape:isstock="true"
       inkscape:collect="always"
       preserveAspectRatio="xMidYMid"
       markerUnits="strokeWidth"><path
         transform="scale(0.45)"
         style="fill:context-fill;fill-rule:evenodd;stroke:context-stroke;stroke-width:2"
         d="M 5,0 C 5,2.76 2.76,5 0,5 -2.76,5 -5,2.76 -5,0 c 0,-2.76 2.3,-5 5,-5 2.76,0 5,2.24 5,5 z"
         id="path1402-9-6-6-1-0-0-2-5"
         sodipodi:nodetypes="sssss" /></marker><marker
       style="overflow:visible"
       id="marker1404-2-1"
       refX="2"
       refY="0"
       orient="auto"
       inkscape:stockid="Dot"
       markerWidth="3.4000001"
       markerHeight="3.4000001"
       viewBox="0 0 5.4 5.4"
       inkscape:isstock="true"
       inkscape:collect="always"
       preserveAspectRatio="xMidYMid"
       markerUnits="strokeWidth"><path
         transform="scale(0.45)"
         style="fill:context-fill;fill-rule:evenodd;stroke:context-stroke;stroke-width:2"
         d="M 5,0 C 5,2.76 2.76,5 0,5 -2.76,5 -5,2.76 -5,0 c 0,-2.76 2.3,-5 5,-5 2.76,0 5,2.24 5,5 z"
         id="path1402-9-2"
         sodipodi:nodetypes="sssss" /></marker><marker
       style="overflow:visible"
       id="marker1404-2-1-0-6"
       refX="2"
       refY="0"
       orient="auto"
       inkscape:stockid="Dot"
       markerWidth="3.4000001"
       markerHeight="3.4000001"
       viewBox="0 0 5.4 5.4"
       inkscape:isstock="true"
       inkscape:collect="always"
       preserveAspectRatio="xMidYMid"
       markerUnits="strokeWidth"><path
         transform="scale(0.45)"
         style="fill:context-fill;fill-rule:evenodd;stroke:context-stroke;stroke-width:2"
         d="M 5,0 C 5,2.76 2.76,5 0,5 -2.76,5 -5,2.76 -5,0 c 0,-2.76 2.3,-5 5,-5 2.76,0 5,2.24 5,5 z"
         id="path1402-9-2-6-1"
         sodipodi:nodetypes="sssss" /></marker><marker
       style="overflow:visible"
       id="marker1404-2-1-0-6-0"
       refX="2"
       refY="0"
       orient="auto"
       inkscape:stockid="Dot"
       markerWidth="3.4000001"
       markerHeight="3.4000001"
       viewBox="0 0 5.4 5.4"
       inkscape:isstock="true"
       inkscape:collect="always"
       preserveAspectRatio="xMidYMid"
       markerUnits="strokeWidth"><path
         transform="scale(0.45)"
         style="fill:context-fill;fill-rule:evenodd;stroke:context-stroke;stroke-width:2"
         d="M 5,0 C 5,2.76 2.76,5 0,5 -2.76,5 -5,2.76 -5,0 c 0,-2.76 2.3,-5 5,-5 2.76,0 5,2.24 5,5 z"
         id="path1402-9-2-6-1-2"
         sodipodi:nodetypes="sssss" /></marker><marker
       style="overflow:visible"
       id="marker1404-2-1-7"
       refX="2"
       refY="0"
       orient="auto"
       inkscape:stockid="Dot"
       markerWidth="3.4000001"
       markerHeight="3.4000001"
       viewBox="0 0 5.4 5.4"
       inkscape:isstock="true"
       inkscape:collect="always"
       preserveAspectRatio="xMidYMid"
       markerUnits="strokeWidth"><path
         transform="scale(0.45)"
         style="fill:context-fill;fill-rule:evenodd;stroke:context-stroke;stroke-width:2"
         d="M 5,0 C 5,2.76 2.76,5 0,5 -2.76,5 -5,2.76 -5,0 c 0,-2.76 2.3,-5 5,-5 2.76,0 5,2.24 5,5 z"
         id="path1402-9-2-5"
         sodipodi:nodetypes="sssss" /></marker><marker
       style="overflow:visible"
       id="marker1404-2-1-0-6-2"
       refX="2"
       refY="0"
       orient="auto"
       inkscape:stockid="Dot"
       markerWidth="3.4000001"
       markerHeight="3.4000001"
       viewBox="0 0 5.4 5.4"
       inkscape:isstock="true"
       inkscape:collect="always"
       preserveAspectRatio="xMidYMid"
       markerUnits="strokeWidth"><path
         transform="scale(0.45)"
         style="fill:context-fill;fill-rule:evenodd;stroke:context-stroke;stroke-width:2"
         d="M 5,0 C 5,2.76 2.76,5 0,5 -2.76,5 -5,2.76 -5,0 c 0,-2.76 2.3,-5 5,-5 2.76,0 5,2.24 5,5 z"
         id="path1402-9-2-6-1-28"
         sodipodi:nodetypes="sssss" /></marker><marker
       style="overflow:visible"
       id="marker1404-2-1-2"
       refX="2"
       refY="0"
       orient="auto"
       inkscape:stockid="Dot"
       markerWidth="3.4000001"
       markerHeight="3.4000001"
       viewBox="0 0 5.4 5.4"
       inkscape:isstock="true"
       inkscape:collect="always"
       preserveAspectRatio="xMidYMid"
       markerUnits="strokeWidth"><path
         transform="scale(0.45)"
         style="fill:context-fill;fill-rule:evenodd;stroke:context-stroke;stroke-width:2"
         d="M 5,0 C 5,2.76 2.76,5 0,5 -2.76,5 -5,2.76 -5,0 c 0,-2.76 2.3,-5 5,-5 2.76,0 5,2.24 5,5 z"
         id="path1402-9-2-9"
         sodipodi:nodetypes="sssss" /></marker><marker
       style="overflow:visible"
       id="marker1404-2-1-2-7"
       refX="2"
       refY="0"
       orient="auto"
       inkscape:stockid="Dot"
       markerWidth="3.4000001"
       markerHeight="3.4000001"
       viewBox="0 0 5.4 5.4"
       inkscape:isstock="true"
       inkscape:collect="always"
       preserveAspectRatio="xMidYMid"
       markerUnits="strokeWidth"><path
         transform="scale(0.45)"
         style="fill:context-fill;fill-rule:evenodd;stroke:context-stroke;stroke-width:2"
         d="M 5,0 C 5,2.76 2.76,5 0,5 -2.76,5 -5,2.76 -5,0 c 0,-2.76 2.3,-5 5,-5 2.76,0 5,2.24 5,5 z"
         id="path1402-9-2-9-8"
         sodipodi:nodetypes="sssss" /></marker><marker
       style="overflow:visible"
       id="marker1404-2-1-2-0"
       refX="2"
       refY="0"
       orient="auto"
       inkscape:stockid="Dot"
       markerWidth="3.4000001"
       markerHeight="3.4000001"
       viewBox="0 0 5.4 5.4"
       inkscape:isstock="true"
       inkscape:collect="always"
       preserveAspectRatio="xMidYMid"
       markerUnits="strokeWidth"><path
         transform="scale(0.45)"
         style="fill:context-fill;fill-rule:evenodd;stroke:context-stroke;stroke-width:2"
         d="M 5,0 C 5,2.76 2.76,5 0,5 -2.76,5 -5,2.76 -5,0 c 0,-2.76 2.3,-5 5,-5 2.76,0 5,2.24 5,5 z"
         id="path1402-9-2-9-3"
         sodipodi:nodetypes="sssss" /></marker><marker
       style="overflow:visible"
       id="marker1404-2-1-0-6-0-1"
       refX="2"
       refY="0"
       orient="auto"
       inkscape:stockid="Dot"
       markerWidth="3.4000001"
       markerHeight="3.4000001"
       viewBox="0 0 5.4 5.4"
       inkscape:isstock="true"
       inkscape:collect="always"
       preserveAspectRatio="xMidYMid"
       markerUnits="strokeWidth"><path
         transform="scale(0.45)"
         style="fill:context-fill;fill-rule:evenodd;stroke:context-stroke;stroke-width:2"
         d="M 5,0 C 5,2.76 2.76,5 0,5 -2.76,5 -5,2.76 -5,0 c 0,-2.76 2.3,-5 5,-5 2.76,0 5,2.24 5,5 z"
         id="path1402-9-2-6-1-2-0"
         sodipodi:nodetypes="sssss" /></marker><marker
       style="overflow:visible"
       id="marker1404-2-1-2-7-3"
       refX="2"
       refY="0"
       orient="auto"
       inkscape:stockid="Dot"
       markerWidth="3.4000001"
       markerHeight="3.4000001"
       viewBox="0 0 5.4 5.4"
       inkscape:isstock="true"
       inkscape:collect="always"
       preserveAspectRatio="xMidYMid"
       markerUnits="strokeWidth"><path
         transform="scale(0.45)"
         style="fill:context-fill;fill-rule:evenodd;stroke:context-stroke;stroke-width:2"
         d="M 5,0 C 5,2.76 2.76,5 0,5 -2.76,5 -5,2.76 -5,0 c 0,-2.76 2.3,-5 5,-5 2.76,0 5,2.24 5,5 z"
         id="path1402-9-2-9-8-2"
         sodipodi:nodetypes="sssss" /></marker><marker
       style="overflow:visible"
       id="marker1404-2-1-7-6"
       refX="2"
       refY="0"
       orient="auto"
       inkscape:stockid="Dot"
       markerWidth="3.4000001"
       markerHeight="3.4000001"
       viewBox="0 0 5.4 5.4"
       inkscape:isstock="true"
       inkscape:collect="always"
       preserveAspectRatio="xMidYMid"
       markerUnits="strokeWidth"><path
         transform="scale(0.45)"
         style="fill:context-fill;fill-rule:evenodd;stroke:context-stroke;stroke-width:2"
         d="M 5,0 C 5,2.76 2.76,5 0,5 -2.76,5 -5,2.76 -5,0 c 0,-2.76 2.3,-5 5,-5 2.76,0 5,2.24 5,5 z"
         id="path1402-9-2-5-1"
         sodipodi:nodetypes="sssss" /></marker><marker
       style="overflow:visible"
       id="marker1404-2-1-7-6-5"
       refX="2"
       refY="0"
       orient="auto"
       inkscape:stockid="Dot"
       markerWidth="3.4000001"
       markerHeight="3.4000001"
       viewBox="0 0 5.4 5.4"
       inkscape:isstock="true"
       inkscape:collect="always"
       preserveAspectRatio="xMidYMid"
       markerUnits="strokeWidth"><path
         transform="scale(0.45)"
         style="fill:context-fill;fill-rule:evenodd;stroke:context-stroke;stroke-width:2"
         d="M 5,0 C 5,2.76 2.76,5 0,5 -2.76,5 -5,2.76 -5,0 c 0,-2.76 2.3,-5 5,-5 2.76,0 5,2.24 5,5 z"
         id="path1402-9-2-5-1-4"
         sodipodi:nodetypes="sssss" /></marker></defs><g
     inkscape:label="Layer 1"
     inkscape:groupmode="layer"
     id="layer1"><path
       id="rect3475-3-7"
       style="fill:#4d4d4d;stroke:none;stroke-width:0.145"
       d="m 25.4,25.401072 h 27.000125 l -4.91825,4.91893 -22.081875,7e-5 z"
       sodipodi:nodetypes="ccccc" /><text
       xml:space="preserve"
       style="font-size:4.93889px;line-height:1.25;font-family:sans-serif;fill:#ffffff;stroke:none;stroke-width:0.264583"
       x="26.162933"
       y="29.239859"
       id="text3473-7-5"><tspan
         sodipodi:role="line"
         id="tspan3471-5-3"
         style="font-style:normal;font-variant:normal;font-weight:normal;font-stretch:normal;font-size:4.93889px;font-family:'Nimbus Mono PS';-inkscape-font-specification:'Nimbus Mono PS';fill:#ffffff;stroke:none;stroke-width:0.264583"
         x="26.162933"
         y="29.239859">HOBBIES</tspan></text><path
       style="fill:none;stroke:#4d4d4d;stroke-width:0.8;stroke-linecap:square;stroke-linejoin:miter;stroke-dasharray:none;stroke-opacity:1;marker-end:url(#marker6781-3)"
       d="m 51.576,25.800022 125.4092,0.007 18.5898,18.58137"
       id="path4418-2-5"
       sodipodi:nodetypes="ccc" /><text
       xml:space="preserve"
       style="font-size:4.93889px;line-height:1.25;font-family:sans-serif;fill:#1a1a1a;stroke-width:0.264583"
       x="103.56034"
       y="273.08426"
       id="text1489"><tspan
         sodipodi:role="line"
         id="tspan1487"
         style="font-style:normal;font-variant:normal;font-weight:bold;font-stretch:normal;font-size:4.93889px;font-family:'Nimbus Mono PS';-inkscape-font-specification:'Nimbus Mono PS';fill:#1a1a1a;stroke-width:0.264583"
         x="103.56034"
         y="273.08426">4</tspan></text><path
       id="path1556"
       style="fill:none;stroke:#666666;stroke-width:0.799999;stroke-linecap:square"
       d="m 108.849,271.60001 c 0,2.12576 -1.72322,3.84902 -3.84898,3.84902 -2.12576,0 -3.84902,-1.72326 -3.84902,-3.84902 0,-2.12576 1.72326,-3.84902 3.84902,-3.84902 2.12576,0 3.84898,1.72326 3.84898,3.84902 z"
       sodipodi:nodetypes="sssss" /><path
       style="fill:none;stroke:#666666;stroke-width:0.8;stroke-linecap:butt;stroke-linejoin:miter;stroke-dasharray:none;stroke-opacity:1;marker-end:url(#marker1873)"
       d="m 108.849,271.6 h 86.84415"
       id="path1621"
       sodipodi:nodetypes="cc" /><path
       style="fill:none;stroke:#666666;stroke-width:0.8;stroke-linecap:butt;stroke-linejoin:miter;stroke-dasharray:none;stroke-opacity:1;marker-end:url(#marker1873-5)"
       d="m 101.151,271.6 -86.763086,0"
       id="path1621-3"
       sodipodi:nodetypes="cc" /><text
       xml:space="preserve"
       style="font-style:normal;font-weight:normal;font-size:3.175px;line-height:1.25;font-family:sans-serif;fill:#1a1a1a;fill-opacity:1;stroke:none;stroke-width:0.264583"
       x="25.371426"
       y="242.68311"
       id="text647-6"><tspan
         sodipodi:role="line"
         id="tspan645-5"
         style="font-style:normal;font-variant:normal;font-weight:bold;font-stretch:normal;font-size:3.175px;font-family:'Nimbus Mono PS';-inkscape-font-specification:'Nimbus Mono PS Bold';fill:#1a1a1a;stroke-width:0.264583"
         x="25.371426"
         y="242.68311">Date : <tspan
   style="font-style:normal;font-variant:normal;font-weight:normal;font-stretch:normal;font-family:'Nimbus Mono PS';-inkscape-font-specification:'Nimbus Mono PS'"
   id="tspan5837">23</tspan><tspan
   style="font-style:normal;font-variant:normal;font-weight:normal;font-stretch:normal;font-family:'Nimbus Mono PS';-inkscape-font-specification:'Nimbus Mono PS'"
   id="tspan14815">-06-2022</tspan></tspan><tspan
         sodipodi:role="line"
         style="font-style:normal;font-variant:normal;font-weight:bold;font-stretch:normal;font-size:3.175px;font-family:'Nimbus Mono PS';-inkscape-font-specification:'Nimbus Mono PS Bold';fill:#1a1a1a;stroke-width:0.264583"
         x="25.371426"
         y="247.1496"
         id="tspan14744">Place : <tspan
   style="font-style:normal;font-variant:normal;font-weight:normal;font-stretch:normal;font-family:'Nimbus Mono PS';-inkscape-font-specification:'Nimbus Mono PS'"
   id="tspan14817">Bhubaneshwar, India</tspan></tspan></text><path
       style="fill:none;stroke:#4d4d4d;stroke-width:1;stroke-linecap:butt;stroke-linejoin:miter;stroke-dasharray:none;stroke-opacity:1;marker-start:url(#marker1404-2-1)"
       d="m 25.4,86.824199 71.714628,-3e-5 2.828035,2.82817"
       id="path2801-2-0-36"
       sodipodi:nodetypes="ccc" /><path
       style="fill:none;stroke:#4d4d4d;stroke-width:1;stroke-linecap:butt;stroke-linejoin:miter;stroke-dasharray:none;stroke-opacity:1;marker-start:url(#marker1404-2-1-2)"
       d="m 28.482,90.762259 68.63289,-3e-5 1.424659,1.42473"
       id="path2801-2-0-36-3"
       sodipodi:nodetypes="ccc" /><path
       style="fill:none;stroke:#4d4d4d;stroke-width:1;stroke-linecap:butt;stroke-linejoin:miter;stroke-dasharray:none;stroke-opacity:1;marker-start:url(#marker1404-2-1-2-0)"
       d="m 181.518,90.762259 -68.63279,-3e-5 -1.42465,1.42473"
       id="path2801-2-0-36-3-6"
       sodipodi:nodetypes="ccc" /><path
       style="fill:none;stroke:#4d4d4d;stroke-width:1;stroke-linecap:butt;stroke-linejoin:miter;stroke-dasharray:none;stroke-opacity:1;marker-start:url(#marker1404-2-1-2-7)"
       d="m 28.482259,98.638597 68.603892,3e-5 1.42466,-1.42473"
       id="path2801-2-0-36-3-4"
       sodipodi:nodetypes="ccc" /><path
       style="fill:none;stroke:#4d4d4d;stroke-width:1;stroke-linecap:butt;stroke-linejoin:miter;stroke-dasharray:none;stroke-opacity:1;marker-start:url(#marker1404-2-1-2-7-3)"
       d="m 181.518,98.638497 -68.63278,3e-5 -1.42466,-1.42473"
       id="path2801-2-0-36-3-4-0"
       sodipodi:nodetypes="ccc" /><path
       style="fill:none;stroke:#4d4d4d;stroke-width:1;stroke-linecap:butt;stroke-linejoin:miter;stroke-dasharray:none;stroke-opacity:1;marker-start:url(#marker1404-2-1-7)"
       d="m 184.60023,86.824259 -71.71463,-3e-5 -2.82804,2.82817"
       id="path2801-2-0-36-9"
       sodipodi:nodetypes="ccc" /><path
       style="fill:none;stroke:#4d4d4d;stroke-width:1;stroke-linecap:butt;stroke-linejoin:miter;stroke-dasharray:none;stroke-opacity:1;marker-start:url(#marker1404-2-1-7-6)"
       d="m 105,85.124259 v 2.909"
       id="path2801-2-0-36-9-5"
       sodipodi:nodetypes="cc" /><path
       style="fill:none;stroke:#4d4d4d;stroke-width:1;stroke-linecap:butt;stroke-linejoin:miter;stroke-dasharray:none;stroke-opacity:1;marker-start:url(#marker1404-2-1-7-6-5)"
       d="m 105,104.27626 v -2.909"
       id="path2801-2-0-36-9-5-7"
       sodipodi:nodetypes="cc" /><path
       style="fill:none;stroke:#4d4d4d;stroke-width:1;stroke-linecap:butt;stroke-linejoin:miter;stroke-dasharray:none;stroke-opacity:1;marker-start:url(#marker1404-2-1-0-6)"
       d="m 25.4,102.57628 71.667276,3e-5 2.850247,-2.850343"
       id="path2801-2-0-36-2-8"
       sodipodi:nodetypes="ccc" /><path
       style="fill:none;stroke:#4d4d4d;stroke-width:1;stroke-linecap:butt;stroke-linejoin:miter;stroke-dasharray:none;stroke-opacity:1;marker-start:url(#marker1404-2-1-0-6-2)"
       d="m 184.5533,102.57594 -71.66727,3e-5 -2.82804,-2.828163"
       id="path2801-2-0-36-2-8-9"
       sodipodi:nodetypes="ccc" /><path
       style="fill:none;stroke:#4d4d4d;stroke-width:1;stroke-linecap:butt;stroke-linejoin:miter;stroke-dasharray:none;stroke-opacity:1;marker-start:url(#marker1404-2-1-0-6-0)"
       d="m 29.313,94.700237 68.547485,4e-5"
       id="path2801-2-0-36-2-8-3"
       sodipodi:nodetypes="cc" /><path
       style="fill:none;stroke:#4d4d4d;stroke-width:1;stroke-linecap:butt;stroke-linejoin:miter;stroke-dasharray:none;stroke-opacity:1;marker-start:url(#marker1404-2-1-0-6-0-1)"
       d="m 180.687,94.700257 -68.548,4e-5"
       id="path2801-2-0-36-2-8-3-6"
       sodipodi:nodetypes="cc" /><path
       style="fill:none;stroke:#666666;stroke-width:0.4;stroke-linecap:butt;stroke-linejoin:miter;stroke-dasharray:none;stroke-opacity:1;marker-start:url(#marker1404-2-3);marker-end:url(#marker3131-9-1-7)"
       d="m 41.514481,36.918492 -2,-2e-4 -1.414,-1.4139 4.15e-4,-2.0003"
       id="path2801-2-0-3"
       sodipodi:nodetypes="cccc" /><path
       style="fill:none;stroke:#666666;stroke-width:0.4;stroke-linecap:butt;stroke-linejoin:miter;stroke-dasharray:none;stroke-opacity:1;marker-start:url(#marker1404-2-3-3-3)"
       d="m 41.514017,40.918522 -2,-2.6e-4 -1.414,-1.41383 4.15e-4,-4.00004"
       id="path2801-2-0-3-9-9"
       sodipodi:nodetypes="cccc" /><path
       style="fill:none;stroke:#666666;stroke-width:0.4;stroke-linecap:butt;stroke-linejoin:miter;stroke-dasharray:none;stroke-opacity:1;marker-start:url(#marker1404-2-3-3-3-5)"
       d="m 41.514009,44.918522 -2,-2.6e-4 -1.414,-1.41381 4.15e-4,-4.00004"
       id="path2801-2-0-3-9-9-3"
       sodipodi:nodetypes="cccc" /><path
       style="fill:none;stroke:#666666;stroke-width:0.4;stroke-linecap:butt;stroke-linejoin:miter;stroke-dasharray:none;stroke-opacity:1;marker-start:url(#marker1404-2-3-3-3-5-1)"
       d="m 41.514009,48.918522 -2,-2.6e-4 -1.414,-1.41381 4.15e-4,-4.00004"
       id="path2801-2-0-3-9-9-3-6"
       sodipodi:nodetypes="cccc" /><path
       style="fill:none;stroke:#666666;stroke-width:0.4;stroke-linecap:butt;stroke-linejoin:miter;stroke-dasharray:none;stroke-opacity:1;marker-start:url(#marker1404-2-3-3-3-5-1-3)"
       d="m 41.514009,52.918522 -2,-2.6e-4 -1.414,-1.41381 4.15e-4,-4.00004"
       id="path2801-2-0-3-9-9-3-6-0"
       sodipodi:nodetypes="cccc" /><text
       xml:space="preserve"
       style="font-style:normal;font-weight:normal;font-size:3.175px;line-height:1.25;font-family:sans-serif;fill:#1a1a1a;fill-opacity:1;stroke:none;stroke-width:0.264583"
       x="44.513844"
       y="37.616749"
       id="text1895-7"><tspan
         sodipodi:role="line"
         id="tspan1893-5"
         style="font-style:normal;font-variant:normal;font-weight:normal;font-stretch:normal;font-size:3.175px;font-family:'Nimbus Mono PS';-inkscape-font-specification:'Nimbus Mono PS';fill:#1a1a1a;stroke-width:0.264583"
         x="44.513844"
         y="37.616749">Computer Programming</tspan></text><text
       xml:space="preserve"
       style="font-style:normal;font-weight:normal;font-size:3.175px;line-height:1.25;font-family:sans-serif;fill:#1a1a1a;fill-opacity:1;stroke:none;stroke-width:0.264583"
       x="44.577351"
       y="41.880238"
       id="text1895-4"><tspan
         sodipodi:role="line"
         id="tspan1893-7"
         style="font-style:normal;font-variant:normal;font-weight:normal;font-stretch:normal;font-size:3.175px;font-family:'Nimbus Mono PS';-inkscape-font-specification:'Nimbus Mono PS';fill:#1a1a1a;stroke-width:0.264583"
         x="44.577351"
         y="41.880238">Electronics</tspan></text><text
       xml:space="preserve"
       style="font-style:normal;font-weight:normal;font-size:3.175px;line-height:1.25;font-family:sans-serif;fill:#1a1a1a;fill-opacity:1;stroke:none;stroke-width:0.264583"
       x="44.485275"
       y="45.880253"
       id="text1895-4-8"><tspan
         sodipodi:role="line"
         id="tspan1893-7-4"
         style="font-style:normal;font-variant:normal;font-weight:normal;font-stretch:normal;font-size:3.175px;font-family:'Nimbus Mono PS';-inkscape-font-specification:'Nimbus Mono PS';fill:#1a1a1a;stroke-width:0.264583"
         x="44.485275"
         y="45.880253">Table Tennis</tspan></text><text
       xml:space="preserve"
       style="font-style:normal;font-weight:normal;font-size:3.175px;line-height:1.25;font-family:sans-serif;fill:#1a1a1a;fill-opacity:1;stroke:none;stroke-width:0.264583"
       x="44.577347"
       y="49.880253"
       id="text1895-4-8-8"><tspan
         sodipodi:role="line"
         id="tspan1893-7-4-6"
         style="font-style:normal;font-variant:normal;font-weight:normal;font-stretch:normal;font-size:3.175px;font-family:'Nimbus Mono PS';-inkscape-font-specification:'Nimbus Mono PS';fill:#1a1a1a;stroke-width:0.264583"
         x="44.577347"
         y="49.880253">Electric Guitar</tspan></text><text
       xml:space="preserve"
       style="font-style:normal;font-weight:normal;font-size:3.175px;line-height:1.25;font-family:sans-serif;fill:#1a1a1a;fill-opacity:1;stroke:none;stroke-width:0.264583"
       x="44.577351"
       y="53.58643"
       id="text1895-4-8-8-8"><tspan
         sodipodi:role="line"
         id="tspan1893-7-4-6-8"
         style="font-style:normal;font-variant:normal;font-weight:normal;font-stretch:normal;font-size:3.175px;font-family:'Nimbus Mono PS';-inkscape-font-specification:'Nimbus Mono PS';fill:#1a1a1a;stroke-width:0.264583"
         x="44.577351"
         y="53.58643">Photography</tspan></text><path
       style="fill:none;stroke:#666666;stroke-width:0.4;stroke-linecap:butt;stroke-linejoin:miter;stroke-dasharray:none;stroke-opacity:1;marker-start:url(#marker1404-2-3-3-3-5-1-3-3)"
       d="m 41.514009,56.918522 -2,-2.6e-4 -1.414,-1.41381 4.15e-4,-4.00004"
       id="path2801-2-0-3-9-9-3-6-0-6"
       sodipodi:nodetypes="cccc" /><text
       xml:space="preserve"
       style="font-style:normal;font-weight:normal;font-size:3.175px;line-height:1.25;font-family:sans-serif;fill:#1a1a1a;fill-opacity:1;stroke:none;stroke-width:0.264583"
       x="44.577351"
       y="57.58643"
       id="text1895-4-8-8-8-2"><tspan
         sodipodi:role="line"
         id="tspan1893-7-4-6-8-9"
         style="font-style:normal;font-variant:normal;font-weight:normal;font-stretch:normal;font-size:3.175px;font-family:'Nimbus Mono PS';-inkscape-font-specification:'Nimbus Mono PS';fill:#1a1a1a;stroke-width:0.264583"
         x="44.577351"
         y="57.58643">Bike Riding</tspan></text><g
       id="g6548"
       transform="matrix(0.01927915,0,0,0.01927915,100.27454,89.974759)"
       style="fill:#1a1a1a;stroke:#808080"><g
         id="g6494"
         style="fill:#1a1a1a;stroke:#808080">
	<path
   d="m 469.15,265.9 c 11.5,0 20.9,-9.4 20.9,-20.9 0,-11.5 -9.4,-20.9 -20.9,-20.9 h -59.4 V 195 h 59.4 c 11.5,0 20.9,-9.4 20.9,-20.9 0,-11.5 -9.4,-20.9 -20.9,-20.9 h -59.4 v -51.1 c 0,-11.5 -9.4,-20.9 -20.9,-20.9 h -52.1 V 20.9 c 0,-11.5 -9.4,-20.9 -20.9,-20.9 -11.5,0 -20.9,9.4 -20.9,20.9 v 60.5 h -29.2 V 20.9 c 0,-11.5 -9.4,-20.9 -20.9,-20.9 -11.5,0 -20.9,9.4 -20.9,20.9 v 60.5 h -28.9 V 20.9 c 0,-11.5 -9.4,-20.9 -20.9,-20.9 -11.5,0 -20.9,9.4 -20.9,20.9 v 60.5 h -49 c -11.5,0 -20.9,9.4 -20.9,20.9 v 51.1 h -62.4 c -11.5,0 -20.9,9.4 -20.9,20.9 0,11.5 9.4,20.9 20.9,20.9 h 62.6 v 29.2 h -62.6 c -11.5,0 -20.9,9.4 -20.9,20.9 0,11.5 9.4,20.9 20.9,20.9 h 62.6 V 294 h -62.6 c -11.5,0 -20.9,9.4 -20.9,20.9 0,11.5 9.4,20.9 20.9,20.9 h 62.6 v 51.1 c 0,11.5 9.4,20.9 20.9,20.9 h 49 v 61.5 c 0,11.5 9.4,20.9 20.9,20.9 11.5,0 20.9,-9.4 20.9,-20.9 v -61.5 h 29.2 v 61.5 c 0,11.5 9.4,20.9 20.9,20.9 11.5,0 20.9,-9.4 20.9,-20.9 v -61.5 h 28.8 v 61.5 c 0,11.5 9.4,20.9 20.9,20.9 10.4,0 19.8,-9.4 20.9,-20.9 v -61.5 h 52.1 c 11.5,0 20.9,-8.3 20.9,-20.9 v -51.1 h 59.4 c 11.5,0 20.9,-9.4 20.9,-20.9 0,-11.5 -9.4,-20.9 -20.9,-20.9 h -59.4 V 265.9 Z M 368.05,367 h -244 V 123 h 244 z"
   id="path6492"
   style="fill:#1a1a1a;stroke:#808080" />
</g><g
         id="g6496"
         style="fill:#1a1a1a;stroke:#808080">
</g><g
         id="g6498"
         style="fill:#1a1a1a;stroke:#808080">
</g><g
         id="g6500"
         style="fill:#1a1a1a;stroke:#808080">
</g><g
         id="g6502"
         style="fill:#1a1a1a;stroke:#808080">
</g><g
         id="g6504"
         style="fill:#1a1a1a;stroke:#808080">
</g><g
         id="g6506"
         style="fill:#1a1a1a;stroke:#808080">
</g><g
         id="g6508"
         style="fill:#1a1a1a;stroke:#808080">
</g><g
         id="g6510"
         style="fill:#1a1a1a;stroke:#808080">
</g><g
         id="g6512"
         style="fill:#1a1a1a;stroke:#808080">
</g><g
         id="g6514"
         style="fill:#1a1a1a;stroke:#808080">
</g><g
         id="g6516"
         style="fill:#1a1a1a;stroke:#808080">
</g><g
         id="g6518"
         style="fill:#1a1a1a;stroke:#808080">
</g><g
         id="g6520"
         style="fill:#1a1a1a;stroke:#808080">
</g><g
         id="g6522"
         style="fill:#1a1a1a;stroke:#808080">
</g><g
         id="g6524"
         style="fill:#1a1a1a;stroke:#808080">
</g></g><path
       id="path6602"
       style="fill:none;stroke:#1a1a1a"
       d="m 111.66704,94.700087 c 0,3.68209 -2.98493,6.667173 -6.66702,6.667173 -3.68209,0 -6.667018,-2.985083 -6.667018,-6.667173 0,-3.682088 2.984928,-6.666828 6.667018,-6.666828 3.68209,0 6.66702,2.98474 6.66702,6.666828 z"
       sodipodi:nodetypes="sssss" /><text
       xml:space="preserve"
       style="font-style:normal;font-weight:normal;font-size:4.93889px;line-height:1.25;font-family:sans-serif;fill:#000000;fill-opacity:1;stroke:none;stroke-width:0.264583"
       x="136.17215"
       y="246.99744"
       id="text14748"><tspan
         sodipodi:role="line"
         id="tspan14746"
         style="font-style:normal;font-variant:normal;font-weight:normal;font-stretch:normal;font-size:4.93889px;font-family:'Nimbus Mono PS';-inkscape-font-specification:'Nimbus Mono PS';stroke-width:0.264583"
         x="136.17215"
         y="246.99744">(ARITRA SARKAR)</tspan></text><path
       style="fill:none;stroke:#000000;stroke-width:0.264583px;stroke-linecap:butt;stroke-linejoin:miter;stroke-opacity:1"
       d="m 132.22376,240.01929 h 52.37648"
       id="path14813"
       sodipodi:nodetypes="cc" /></g></svg>
